<svg width="1440" height="1024" viewBox="0 0 1440 1024" fill="none" xmlns="http://www.w3.org/2000/svg">
<path d="M243.311 312H199.392V310.463C203.358 310.106 206.121 309.438 207.681 308.457C210.444 306.719 211.826 304.313 211.826 301.238C211.826 299.41 211.202 296.959 209.954 293.884L208.818 291.077L202.4 275.301H172.987L169.511 284.526L167.84 288.67C165.835 293.572 164.832 297.427 164.832 300.235C164.832 301.884 165.188 303.421 165.901 304.847C166.659 306.273 167.662 307.432 168.91 308.323C170.648 309.527 172.876 310.24 175.594 310.463V312H145.647V310.463C148.009 310.329 150.081 309.749 151.864 308.724C153.646 307.699 155.384 306.051 157.078 303.778C158.504 301.951 159.885 299.611 161.222 296.759C162.604 293.862 164.409 289.539 166.637 283.79L191.103 220.753H194.913L223.992 291.01C226.176 296.313 227.914 300.101 229.206 302.374C230.498 304.647 231.902 306.363 233.417 307.521C234.487 308.323 235.712 308.947 237.094 309.393C238.476 309.794 240.548 310.151 243.311 310.463V312ZM201.331 272.56L187.293 237.933L174.057 272.56H201.331ZM296.187 232.853V291.01C296.187 295.6 296.432 298.987 296.922 301.171C297.457 303.354 298.415 305.159 299.797 306.585C301.045 307.878 302.449 308.814 304.008 309.393C305.613 309.972 307.685 310.329 310.225 310.463V312H279.408V310.463C281.949 310.329 283.999 309.972 285.558 309.393C287.163 308.814 288.589 307.878 289.837 306.585C291.218 305.159 292.154 303.354 292.644 301.171C293.179 298.942 293.446 295.556 293.446 291.01V241.676C293.446 237.175 293.179 233.833 292.644 231.649C292.154 229.421 291.218 227.594 289.837 226.168C288.633 224.875 287.23 223.94 285.625 223.36C284.065 222.781 281.993 222.424 279.408 222.291V220.753H305.145L359.425 290.007V241.743C359.425 237.153 359.157 233.766 358.623 231.583C358.132 229.399 357.197 227.594 355.815 226.168C354.567 224.875 353.141 223.94 351.537 223.36C349.977 222.781 347.927 222.424 345.387 222.291V220.753H376.204V222.291C371.747 222.291 368.271 223.583 365.775 226.168C364.394 227.594 363.436 229.421 362.901 231.649C362.411 233.833 362.166 237.175 362.166 241.676V312H359.157L296.187 232.853ZM453.212 222.826C450.404 222.826 447.396 222.915 444.187 223.093C437.324 223.449 432.199 224.318 428.812 225.7C425.47 227.081 422.707 229.466 420.523 232.853C418.518 235.972 416.98 240.206 415.911 245.554L414.373 245.42L415.577 220.753H506.021L507.225 245.42L505.687 245.554C504.484 239.359 502.59 234.68 500.005 231.516C497.465 228.307 493.744 226.012 488.841 224.63C484.697 223.427 477.678 222.826 467.785 222.826V291.01C467.785 295.556 468.03 298.942 468.52 301.171C469.055 303.354 470.013 305.159 471.394 306.585C472.642 307.878 474.046 308.814 475.606 309.393C477.21 309.972 479.282 310.329 481.823 310.463V312H439.107V310.463C441.692 310.329 443.764 309.972 445.324 309.393C446.928 308.814 448.354 307.878 449.602 306.585C450.984 305.159 451.919 303.354 452.41 301.171C452.944 298.987 453.212 295.6 453.212 291.01V222.826ZM638.379 312H594.46V310.463C598.427 310.106 601.19 309.438 602.75 308.457C605.513 306.719 606.894 304.313 606.894 301.238C606.894 299.41 606.27 296.959 605.022 293.884L603.886 291.077L597.469 275.301H568.056L564.58 284.526L562.908 288.67C560.903 293.572 559.9 297.427 559.9 300.235C559.9 301.884 560.257 303.421 560.97 304.847C561.727 306.273 562.73 307.432 563.978 308.323C565.716 309.527 567.944 310.24 570.663 310.463V312H540.715V310.463C543.077 310.329 545.149 309.749 546.932 308.724C548.715 307.699 550.453 306.051 552.146 303.778C553.572 301.951 554.954 299.611 556.291 296.759C557.672 293.862 559.477 289.539 561.705 283.79L586.171 220.753H589.982L619.06 291.01C621.244 296.313 622.982 300.101 624.274 302.374C625.567 304.647 626.971 306.363 628.486 307.521C629.555 308.323 630.781 308.947 632.162 309.393C633.544 309.794 635.616 310.151 638.379 310.463V312ZM596.399 272.56L582.361 237.933L569.125 272.56H596.399ZM703.154 267.346V291.01C703.154 295.556 703.4 298.942 703.89 301.171C704.425 303.354 705.383 305.159 706.764 306.585C707.967 307.833 709.349 308.769 710.909 309.393C712.513 309.972 714.608 310.329 717.192 310.463V312H674.477V310.463C677.062 310.329 679.134 309.972 680.694 309.393C682.298 308.769 683.702 307.833 684.905 306.585C686.331 305.159 687.289 303.354 687.78 301.171C688.27 298.987 688.515 295.6 688.515 291.01V241.743C688.515 237.153 688.27 233.766 687.78 231.583C687.289 229.399 686.331 227.594 684.905 226.168C683.702 224.875 682.298 223.94 680.694 223.36C679.089 222.781 677.017 222.424 674.477 222.291V220.753H706.697C712.09 220.753 715.633 220.776 717.326 220.82C724.234 221.132 729.648 222.068 733.57 223.628C737.982 225.41 741.391 228.084 743.798 231.649C746.249 235.17 747.474 239.27 747.474 243.949C747.474 250.901 744.845 256.472 739.586 260.661C737.982 261.909 736.199 262.934 734.239 263.736C732.322 264.538 729.737 265.296 726.484 266.009C729.158 267.123 731.141 268.282 732.434 269.485C733.459 270.421 734.394 271.602 735.241 273.028C736.088 274.409 737.358 276.883 739.052 280.448C743.018 288.603 746.004 294.575 748.009 298.363C750.059 302.107 751.775 304.825 753.156 306.519C754.27 307.9 755.34 308.858 756.365 309.393C757.435 309.928 758.883 310.284 760.71 310.463V312H738.517C737.403 309.549 736.69 307.989 736.378 307.321L731.698 296.692C728.891 290.319 726.061 284.682 723.209 279.78C720.357 274.922 717.749 271.602 715.388 269.819C714.184 268.928 712.892 268.304 711.51 267.948C710.129 267.546 708.435 267.346 706.43 267.346H703.154ZM703.154 265.875H705.695C711.221 265.875 715.165 265.563 717.527 264.939C719.933 264.315 722.184 263.023 724.278 261.062C728.958 256.606 731.297 251.08 731.297 244.484C731.297 240.963 730.606 237.666 729.225 234.591C727.888 231.471 726.016 228.909 723.61 226.903C721.738 225.388 719.51 224.341 716.925 223.761C714.34 223.137 710.664 222.826 705.895 222.826H703.154V265.875ZM890.394 312H846.475V310.463C850.442 310.106 853.205 309.438 854.764 308.457C857.527 306.719 858.909 304.313 858.909 301.238C858.909 299.41 858.285 296.959 857.037 293.884L855.901 291.077L849.483 275.301H820.071L816.595 284.526L814.923 288.67C812.918 293.572 811.915 297.427 811.915 300.235C811.915 301.884 812.272 303.421 812.985 304.847C813.742 306.273 814.745 307.432 815.993 308.323C817.731 309.527 819.959 310.24 822.678 310.463V312H792.73V310.463C795.092 310.329 797.164 309.749 798.947 308.724C800.729 307.699 802.467 306.051 804.161 303.778C805.587 301.951 806.969 299.611 808.305 296.759C809.687 293.862 811.492 289.539 813.72 283.79L838.186 220.753H841.997L871.075 291.01C873.259 296.313 874.997 300.101 876.289 302.374C877.582 304.647 878.986 306.363 880.501 307.521C881.57 308.323 882.796 308.947 884.177 309.393C885.559 309.794 887.631 310.151 890.394 310.463V312ZM848.414 272.56L834.376 237.933L821.14 272.56H848.414ZM943.27 232.853V291.01C943.27 295.6 943.516 298.987 944.006 301.171C944.541 303.354 945.499 305.159 946.88 306.585C948.128 307.878 949.532 308.814 951.092 309.393C952.696 309.972 954.768 310.329 957.308 310.463V312H926.492V310.463C929.032 310.329 931.082 309.972 932.642 309.393C934.246 308.814 935.672 307.878 936.92 306.585C938.301 305.159 939.237 303.354 939.728 301.171C940.262 298.942 940.53 295.556 940.53 291.01V241.676C940.53 237.175 940.262 233.833 939.728 231.649C939.237 229.421 938.301 227.594 936.92 226.168C935.717 224.875 934.313 223.94 932.709 223.36C931.149 222.781 929.077 222.424 926.492 222.291V220.753H952.228L1006.51 290.007V241.743C1006.51 237.153 1006.24 233.766 1005.71 231.583C1005.22 229.399 1004.28 227.594 1002.9 226.168C1001.65 224.875 1000.22 223.94 998.62 223.36C997.06 222.781 995.01 222.424 992.47 222.291V220.753H1023.29V222.291C1018.83 222.291 1015.35 223.583 1012.86 226.168C1011.48 227.594 1010.52 229.421 1009.98 231.649C1009.49 233.833 1009.25 237.175 1009.25 241.676V312H1006.24L943.27 232.853ZM1147.89 220.753L1148.69 249.832L1147.16 249.966C1144.08 240.072 1140.14 232.719 1135.32 227.906C1130.51 223.048 1124.69 220.62 1117.88 220.62C1112.57 220.62 1108 221.711 1104.17 223.895C1100.38 226.034 1096.84 229.533 1093.54 234.39C1086.86 244.328 1083.52 255.692 1083.52 268.482C1083.52 274.588 1084.32 280.359 1085.92 285.796C1087.53 291.188 1089.87 295.957 1092.94 300.101C1098.91 308.123 1106.2 312.134 1114.8 312.134C1118.19 312.134 1121.37 311.421 1124.36 309.995C1127.35 308.568 1129.8 306.608 1131.71 304.112C1134.34 300.636 1135.66 296.514 1135.66 291.745C1135.66 287.333 1134.45 284.147 1132.05 282.186C1129.69 280.225 1125.76 279.245 1120.28 279.245V277.707H1162.93V279.245C1159.01 279.601 1156.25 280.158 1154.64 280.916C1153.08 281.629 1151.92 282.877 1151.17 284.659C1150.32 286.62 1149.9 290.52 1149.9 296.358C1149.9 297.962 1149.99 300.458 1150.16 303.845L1150.3 305.382C1148.6 304.758 1147.36 304.446 1146.55 304.446C1145.57 304.446 1144.33 304.959 1142.81 305.984C1138.93 308.658 1134.43 310.708 1129.31 312.134C1124.18 313.56 1118.77 314.273 1113.06 314.273C1105.22 314.273 1098.13 312.936 1091.81 310.262C1085.52 307.588 1080.42 303.755 1076.5 298.764C1073.56 295.021 1071.28 290.564 1069.68 285.395C1068.12 280.225 1067.34 274.744 1067.34 268.95C1067.34 260.973 1068.77 253.553 1071.62 246.69C1074.47 239.827 1078.48 234.167 1083.65 229.711C1087.88 226.101 1092.76 223.316 1098.29 221.355C1103.82 219.394 1109.65 218.414 1115.8 218.414C1119.37 218.414 1122.67 218.748 1125.7 219.416C1128.77 220.085 1132.03 221.177 1135.46 222.692L1139.4 224.497C1140.38 224.898 1141.27 225.098 1142.07 225.098C1143.86 225.098 1145.22 223.65 1146.15 220.753H1147.89ZM1294.42 312H1250.5V310.463C1254.47 310.106 1257.23 309.438 1258.79 308.457C1261.55 306.719 1262.93 304.313 1262.93 301.238C1262.93 299.41 1262.31 296.959 1261.06 293.884L1259.93 291.077L1253.51 275.301H1224.1L1220.62 284.526L1218.95 288.67C1216.94 293.572 1215.94 297.427 1215.94 300.235C1215.94 301.884 1216.3 303.421 1217.01 304.847C1217.77 306.273 1218.77 307.432 1220.02 308.323C1221.76 309.527 1223.99 310.24 1226.7 310.463V312H1196.76V310.463C1199.12 310.329 1201.19 309.749 1202.97 308.724C1204.76 307.699 1206.49 306.051 1208.19 303.778C1209.61 301.951 1210.99 299.611 1212.33 296.759C1213.71 293.862 1215.52 289.539 1217.75 283.79L1242.21 220.753H1246.02L1275.1 291.01C1277.28 296.313 1279.02 300.101 1280.32 302.374C1281.61 304.647 1283.01 306.363 1284.53 307.521C1285.6 308.323 1286.82 308.947 1288.2 309.393C1289.58 309.794 1291.66 310.151 1294.42 310.463V312ZM1252.44 272.56L1238.4 237.933L1225.17 272.56H1252.44Z" fill="url(#paint0_linear_9_16)" fill-opacity="0.66"/>
<defs>
<linearGradient id="paint0_linear_9_16" x1="719.956" y1="25.0476" x2="719.998" y2="408.357" gradientUnits="userSpaceOnUse">
<stop offset="0.574" stop-color="#411A0D"/>
<stop offset="0.744" stop-color="#471909" stop-opacity="0"/>
</linearGradient>
</defs>
</svg>
